<svg width="1440" height="811" viewBox="0 0 1440 811" fill="none" xmlns="http://www.w3.org/2000/svg">
<rect width="1440" height="811" fill="#1E1E1E"/>
<rect width="1440" height="810" transform="translate(0 0.5)" fill="#16262E"/>
<path d="M782.828 208.609C784.141 208.609 785.354 208.922 786.469 209.547C787.583 210.161 788.479 211.042 789.156 212.188C789.833 213.323 790.172 214.589 790.172 215.984C790.172 218.109 789.453 219.87 788.016 221.266C786.589 222.661 784.703 223.359 782.359 223.359C781.141 223.359 780.026 223.156 779.016 222.75C778.016 222.333 777.188 221.776 776.531 221.078C775.885 220.37 775.38 219.552 775.016 218.625C774.661 217.688 774.484 216.688 774.484 215.625C774.484 213.927 774.792 212.411 775.406 211.078C776.031 209.734 777.156 208.036 778.781 205.984C779.177 205.484 779.802 204.714 780.656 203.672C781.51 202.63 782.271 201.714 782.938 200.922L783.922 199.734H787.531L779.312 209.547C780.49 208.922 781.661 208.609 782.828 208.609ZM777.438 215.922C777.438 216.849 777.609 217.688 777.953 218.438C778.307 219.188 778.854 219.802 779.594 220.281C780.344 220.75 781.234 220.984 782.266 220.984C783.807 220.984 785.016 220.51 785.891 219.562C786.776 218.615 787.219 217.438 787.219 216.031C787.219 214.552 786.776 213.339 785.891 212.391C785.016 211.432 783.807 210.953 782.266 210.953C780.63 210.953 779.417 211.417 778.625 212.344C777.833 213.271 777.438 214.464 777.438 215.922ZM801.578 211.781H807.672V213.906H801.562V220.609H799.422V213.906H793.219V211.781H799.438V205.156H801.578V211.781ZM824.906 199.625L824.688 202.188H815.141C815.036 205.219 814.958 207.672 814.906 209.547C816.083 208.797 817.359 208.422 818.734 208.422C819.891 208.422 820.922 208.609 821.828 208.984C822.745 209.349 823.49 209.854 824.062 210.5C824.646 211.146 825.089 211.901 825.391 212.766C825.693 213.62 825.844 214.547 825.844 215.547C825.844 217.911 825.083 219.807 823.562 221.234C822.052 222.651 819.995 223.359 817.391 223.359C814.776 223.359 812.682 222.646 811.109 221.219L812.125 219.016C813.667 220.224 815.453 220.828 817.484 220.828C819.193 220.828 820.542 220.344 821.531 219.375C822.521 218.406 823.016 217.141 823.016 215.578C823.016 214.182 822.599 213.052 821.766 212.188C820.932 211.312 819.745 210.875 818.203 210.875C816.661 210.875 815.422 211.391 814.484 212.422L812.312 212.125L812.922 199.625H824.906ZM837.672 199.219L837.109 205.641L842.719 203.281L843.5 205.953L837.766 207.25C837.88 207.406 838.438 208.146 839.438 209.469C840.448 210.792 841.203 211.786 841.703 212.453C841.432 212.62 841.031 212.865 840.5 213.188C839.969 213.51 839.568 213.755 839.297 213.922L836.172 208.266L833.219 213.922L830.781 212.453L834.656 207.25L828.984 205.953L829.766 203.281L835.344 205.641L834.766 199.219H837.672ZM862.438 217.203H859.781V223H857.156V217.203H846.594V214.812L856.859 199.625H859.781V214.938H862.656L862.438 217.203ZM857.156 203.172L849.344 214.938H857.156V203.172ZM866.875 226.406H864.625L875.188 200.094H877.469L866.875 226.406ZM880.484 223L880.125 220.438L888.203 211.469C888.745 210.865 889.266 210.083 889.766 209.125C890.276 208.167 890.646 207.354 890.875 206.688L891.234 205.703C891.234 204.411 890.875 203.411 890.156 202.703C889.438 201.984 888.417 201.625 887.094 201.625C884.885 201.625 883.146 202.266 881.875 203.547L880.969 201.203C882.406 199.849 884.51 199.172 887.281 199.172C889.406 199.172 891.099 199.75 892.359 200.906C893.62 202.052 894.25 203.589 894.25 205.516C894.208 205.661 894.146 205.859 894.062 206.109C893.979 206.349 893.797 206.823 893.516 207.531C893.245 208.24 892.958 208.911 892.656 209.547C892.354 210.182 891.969 210.88 891.5 211.641C891.042 212.401 890.573 213.036 890.094 213.547L883.5 220.594H894.328L894.156 223H880.484ZM906.109 211.781H912.203V213.906H906.094V220.609H903.953V213.906H897.75V211.781H903.969V205.156H906.109V211.781ZM921.5 223.359C920.104 223.359 918.859 223.177 917.766 222.812C916.682 222.448 915.891 222.026 915.391 221.547L916.266 219.25C917.734 220.406 919.484 220.984 921.516 220.984C923.078 220.984 924.318 220.599 925.234 219.828C926.161 219.047 926.625 217.958 926.625 216.562C926.625 215.802 926.505 215.141 926.266 214.578C926.036 214.005 925.724 213.547 925.328 213.203C924.943 212.849 924.443 212.568 923.828 212.359C923.224 212.141 922.599 211.99 921.953 211.906C921.318 211.812 920.578 211.755 919.734 211.734C919.63 211.734 919.474 211.734 919.266 211.734C919.057 211.724 918.901 211.719 918.797 211.719V209.391H919.578C920.307 209.38 920.948 209.344 921.5 209.281C922.062 209.208 922.62 209.083 923.172 208.906C923.734 208.729 924.198 208.495 924.562 208.203C924.927 207.911 925.224 207.521 925.453 207.031C925.682 206.542 925.797 205.964 925.797 205.297C925.797 202.797 924.365 201.547 921.5 201.547C920.469 201.547 919.5 201.698 918.594 202C917.688 202.302 916.911 202.708 916.266 203.219L915.391 200.938C916.943 199.76 919.177 199.172 922.094 199.172C923.271 199.172 924.359 199.391 925.359 199.828C926.359 200.255 927.182 200.917 927.828 201.812C928.474 202.698 928.797 203.74 928.797 204.938C928.797 206.396 928.438 207.594 927.719 208.531C927 209.469 925.99 210.141 924.688 210.547C926.146 210.859 927.286 211.542 928.109 212.594C928.943 213.646 929.359 214.979 929.359 216.594C929.359 218.646 928.625 220.286 927.156 221.516C925.688 222.745 923.802 223.359 921.5 223.359Z" fill="white"/>
<rect x="641.5" y="156.5" width="301" height="109" rx="4.5" stroke="#03B805"/>
<rect x="641" y="286.39" width="145.22" height="50.22" rx="5" fill="#FF6A00"/>
<path d="M707.438 314.406C705.24 308.021 704.026 304.432 703.797 303.641C703.797 303.641 702.531 307.229 700 314.406H707.438ZM711.016 324L708.312 316.672H699.094L696.297 324H693.547L702.422 300.844H705.188L713.797 324H711.016ZM726.391 302.875C724.651 302.875 723.151 303.297 721.891 304.141C720.641 304.984 719.708 306.12 719.094 307.547C718.479 308.974 718.172 310.615 718.172 312.469C718.172 313.854 718.339 315.12 718.672 316.266C719.005 317.401 719.505 318.401 720.172 319.266C720.839 320.12 721.703 320.786 722.766 321.266C723.839 321.734 725.068 321.969 726.453 321.969C728.234 321.969 730.078 321.505 731.984 320.578L732.438 322.875C730.885 323.854 728.786 324.344 726.141 324.344C724.401 324.344 722.839 324.057 721.453 323.484C720.078 322.901 718.938 322.083 718.031 321.031C717.135 319.969 716.453 318.708 715.984 317.25C715.516 315.781 715.281 314.151 715.281 312.359C715.281 310.63 715.536 309.036 716.047 307.578C716.557 306.12 717.276 304.87 718.203 303.828C719.141 302.776 720.307 301.958 721.703 301.375C723.099 300.792 724.651 300.5 726.359 300.5C728.953 300.5 731.141 301.073 732.922 302.219L731.859 304.422C730.151 303.391 728.328 302.875 726.391 302.875Z" fill="#F5F5F5"/>
<rect x="791" y="286.39" width="72.61" height="50.22" rx="5" fill="#F28705"/>
<path d="M830.079 302.875C828.34 302.875 826.84 303.297 825.579 304.141C824.329 304.984 823.397 306.12 822.783 307.547C822.168 308.974 821.861 310.615 821.861 312.469C821.861 313.854 822.027 315.12 822.361 316.266C822.694 317.401 823.194 318.401 823.861 319.266C824.527 320.12 825.392 320.786 826.454 321.266C827.527 321.734 828.756 321.969 830.142 321.969C831.923 321.969 833.767 321.505 835.673 320.578L836.126 322.875C834.574 323.854 832.475 324.344 829.829 324.344C828.09 324.344 826.527 324.057 825.142 323.484C823.767 322.901 822.626 322.083 821.72 321.031C820.824 319.969 820.142 318.708 819.673 317.25C819.204 315.781 818.97 314.151 818.97 312.359C818.97 310.63 819.225 309.036 819.736 307.578C820.246 306.12 820.965 304.87 821.892 303.828C822.829 302.776 823.996 301.958 825.392 301.375C826.788 300.792 828.34 300.5 830.048 300.5C832.642 300.5 834.829 301.073 836.611 302.219L835.548 304.422C833.84 303.391 832.017 302.875 830.079 302.875Z" fill="#F5F5F5"/>
<rect x="641" y="358" width="70" height="75" rx="5" fill="#8C0327"/>
<path d="M675.829 384.625H678.313V408H675.548V387.516C674.495 388.203 673.209 388.792 671.688 389.281V386.672C671.855 386.599 672.193 386.453 672.704 386.234C673.214 386.016 673.594 385.849 673.844 385.734C674.105 385.62 674.428 385.458 674.813 385.25C675.199 385.042 675.537 384.833 675.829 384.625Z" fill="#F5F5F5"/>
<rect x="716" y="358" width="70" height="75" rx="5" fill="#8C0327"/>
<path d="M744.046 408L743.686 405.438L751.764 396.469C752.306 395.865 752.827 395.083 753.327 394.125C753.837 393.167 754.207 392.354 754.436 391.688L754.796 390.703C754.796 389.411 754.436 388.411 753.718 387.703C752.999 386.984 751.978 386.625 750.655 386.625C748.447 386.625 746.707 387.266 745.436 388.547L744.53 386.203C745.968 384.849 748.072 384.172 750.843 384.172C752.968 384.172 754.66 384.75 755.921 385.906C757.181 387.052 757.811 388.589 757.811 390.516C757.77 390.661 757.707 390.859 757.624 391.109C757.54 391.349 757.358 391.823 757.077 392.531C756.806 393.24 756.52 393.911 756.218 394.547C755.915 395.182 755.53 395.88 755.061 396.641C754.603 397.401 754.134 398.036 753.655 398.547L747.061 405.594H757.889L757.718 408H744.046Z" fill="#F5F5F5"/>
<rect x="791" y="358" width="70" height="75" rx="5" fill="#8C0327"/>
<path d="M825.13 408.359C823.734 408.359 822.489 408.177 821.396 407.812C820.312 407.448 819.521 407.026 819.021 406.547L819.896 404.25C821.364 405.406 823.114 405.984 825.146 405.984C826.708 405.984 827.948 405.599 828.864 404.828C829.791 404.047 830.255 402.958 830.255 401.562C830.255 400.802 830.135 400.141 829.896 399.578C829.666 399.005 829.354 398.547 828.958 398.203C828.573 397.849 828.073 397.568 827.458 397.359C826.854 397.141 826.229 396.99 825.583 396.906C824.948 396.812 824.208 396.755 823.364 396.734C823.26 396.734 823.104 396.734 822.896 396.734C822.687 396.724 822.531 396.719 822.427 396.719V394.391H823.208C823.937 394.38 824.578 394.344 825.13 394.281C825.692 394.208 826.25 394.083 826.802 393.906C827.364 393.729 827.828 393.495 828.192 393.203C828.557 392.911 828.854 392.521 829.083 392.031C829.312 391.542 829.427 390.964 829.427 390.297C829.427 387.797 827.995 386.547 825.13 386.547C824.099 386.547 823.13 386.698 822.224 387C821.317 387.302 820.541 387.708 819.896 388.219L819.021 385.938C820.573 384.76 822.807 384.172 825.724 384.172C826.901 384.172 827.989 384.391 828.989 384.828C829.989 385.255 830.812 385.917 831.458 386.812C832.104 387.698 832.427 388.74 832.427 389.938C832.427 391.396 832.067 392.594 831.349 393.531C830.63 394.469 829.62 395.141 828.317 395.547C829.776 395.859 830.916 396.542 831.739 397.594C832.573 398.646 832.989 399.979 832.989 401.594C832.989 403.646 832.255 405.286 830.786 406.516C829.317 407.745 827.432 408.359 825.13 408.359Z" fill="#F5F5F5"/>
<rect x="641" y="449" width="70" height="75" rx="5" fill="#8C0327"/>
<path d="M684.061 493.203H681.405V499H678.78V493.203H668.217V490.812L678.483 475.625H681.405V490.938H684.28L684.061 493.203ZM678.78 479.172L670.967 490.938H678.78V479.172Z" fill="#F5F5F5"/>
<rect x="716" y="449" width="70" height="75" rx="5" fill="#8C0327"/>
<path d="M757.487 475.625L757.269 478.188H747.722C747.618 481.219 747.54 483.672 747.487 485.547C748.665 484.797 749.941 484.422 751.316 484.422C752.472 484.422 753.503 484.609 754.409 484.984C755.326 485.349 756.071 485.854 756.644 486.5C757.227 487.146 757.67 487.901 757.972 488.766C758.274 489.62 758.425 490.547 758.425 491.547C758.425 493.911 757.665 495.807 756.144 497.234C754.633 498.651 752.576 499.359 749.972 499.359C747.357 499.359 745.264 498.646 743.691 497.219L744.706 495.016C746.248 496.224 748.034 496.828 750.066 496.828C751.774 496.828 753.123 496.344 754.112 495.375C755.102 494.406 755.597 493.141 755.597 491.578C755.597 490.182 755.18 489.052 754.347 488.188C753.514 487.312 752.326 486.875 750.784 486.875C749.243 486.875 748.003 487.391 747.066 488.422L744.894 488.125L745.503 475.625H757.487Z" fill="#F5F5F5"/>
<rect x="791" y="449" width="70" height="75" rx="5" fill="#8C0327"/>
<path d="M826.583 484.609C827.896 484.609 829.109 484.922 830.224 485.547C831.338 486.161 832.234 487.042 832.911 488.188C833.588 489.323 833.927 490.589 833.927 491.984C833.927 494.109 833.208 495.87 831.771 497.266C830.344 498.661 828.458 499.359 826.114 499.359C824.896 499.359 823.781 499.156 822.771 498.75C821.771 498.333 820.942 497.776 820.286 497.078C819.64 496.37 819.135 495.552 818.771 494.625C818.416 493.688 818.239 492.688 818.239 491.625C818.239 489.927 818.547 488.411 819.161 487.078C819.786 485.734 820.911 484.036 822.536 481.984C822.932 481.484 823.557 480.714 824.411 479.672C825.265 478.63 826.026 477.714 826.692 476.922L827.677 475.734H831.286L823.067 485.547C824.245 484.922 825.416 484.609 826.583 484.609ZM821.192 491.922C821.192 492.849 821.364 493.688 821.708 494.438C822.062 495.188 822.609 495.802 823.349 496.281C824.099 496.75 824.989 496.984 826.021 496.984C827.562 496.984 828.771 496.51 829.646 495.562C830.531 494.615 830.974 493.438 830.974 492.031C830.974 490.552 830.531 489.339 829.646 488.391C828.771 487.432 827.562 486.953 826.021 486.953C824.385 486.953 823.172 487.417 822.38 488.344C821.588 489.271 821.192 490.464 821.192 491.922Z" fill="#F5F5F5"/>
<rect x="641" y="540" width="70" height="75" rx="5" fill="#8C0327"/>
<path d="M671.858 590L679.889 569.047H669.342L669.514 566.625H683.061V568.75L674.702 590H671.858Z" fill="#F5F5F5"/>
<rect x="716" y="540" width="70" height="75" rx="5" fill="#8C0327"/>
<path d="M751.051 590.359C749.635 590.359 748.353 590.125 747.208 589.656C746.072 589.177 745.15 588.448 744.442 587.469C743.734 586.49 743.379 585.328 743.379 583.984C743.379 582.495 743.806 581.198 744.661 580.094C745.515 578.99 746.708 578.188 748.239 577.688C745.322 576.656 743.864 574.781 743.864 572.062C743.864 570.219 744.53 568.776 745.864 567.734C747.197 566.693 748.926 566.172 751.051 566.172C753.166 566.172 754.879 566.693 756.192 567.734C757.504 568.776 758.161 570.219 758.161 572.062C758.161 573.438 757.806 574.594 757.098 575.531C756.39 576.469 755.4 577.188 754.129 577.688C755.536 578.188 756.64 578.99 757.442 580.094C758.244 581.198 758.645 582.495 758.645 583.984C758.645 585.984 757.921 587.547 756.473 588.672C755.036 589.797 753.228 590.359 751.051 590.359ZM751.051 579.016C749.562 579.359 748.369 579.938 747.473 580.75C746.577 581.552 746.129 582.568 746.129 583.797C746.129 585.078 746.593 586.099 747.52 586.859C748.447 587.609 749.624 587.984 751.051 587.984C752.478 587.984 753.64 587.609 754.536 586.859C755.442 586.099 755.895 585.078 755.895 583.797C755.895 582.557 755.458 581.536 754.583 580.734C753.708 579.922 752.53 579.349 751.051 579.016ZM751.051 568.547C749.822 568.547 748.775 568.854 747.911 569.469C747.056 570.083 746.629 570.927 746.629 572C746.629 574.458 748.103 576.016 751.051 576.672C753.958 576.016 755.411 574.458 755.411 572C755.411 570.927 754.989 570.083 754.145 569.469C753.301 568.854 752.27 568.547 751.051 568.547Z" fill="#F5F5F5"/>
<rect x="791" y="540" width="70" height="75" rx="5" fill="#8C0327"/>
<path d="M825.577 580.656C824.255 580.656 823.036 580.37 821.921 579.797C820.817 579.214 819.926 578.375 819.249 577.281C818.572 576.188 818.234 574.943 818.234 573.547C818.234 571.422 818.963 569.661 820.421 568.266C821.88 566.87 823.786 566.172 826.14 566.172C827.359 566.172 828.463 566.37 829.452 566.766C830.452 567.151 831.27 567.688 831.906 568.375C832.551 569.052 833.046 569.849 833.39 570.766C833.744 571.672 833.921 572.656 833.921 573.719C833.921 575.208 833.666 576.557 833.156 577.766C832.645 578.974 831.765 580.427 830.515 582.125C830.067 582.719 829.317 583.672 828.265 584.984C827.223 586.297 826.291 587.458 825.468 588.469L824.234 590H820.796L829.093 579.719C827.916 580.344 826.744 580.656 825.577 580.656ZM830.968 573.422C830.968 571.995 830.562 570.828 829.749 569.922C828.947 569.005 827.775 568.547 826.234 568.547C824.682 568.547 823.452 569.026 822.546 569.984C821.64 570.932 821.187 572.104 821.187 573.5C821.187 574.958 821.624 576.125 822.499 577C823.374 577.875 824.588 578.312 826.14 578.312C827.786 578.312 828.999 577.859 829.781 576.953C830.572 576.047 830.968 574.87 830.968 573.422Z" fill="#F5F5F5"/>
<rect x="641" y="631" width="70" height="75" rx="5" fill="#8C0327"/>
<path d="M679.644 680.453C678.612 681.057 677.404 681.359 676.019 681.359C674.633 681.359 673.42 681.057 672.378 680.453C671.336 679.839 670.498 678.979 669.862 677.875C669.237 676.771 668.769 675.5 668.456 674.062C668.154 672.625 668.003 671.026 668.003 669.266C668.003 667.818 668.102 666.479 668.3 665.25C668.508 664.021 668.826 662.906 669.253 661.906C669.68 660.906 670.206 660.057 670.831 659.359C671.467 658.661 672.222 658.125 673.097 657.75C673.972 657.365 674.946 657.172 676.019 657.172C677.352 657.172 678.529 657.464 679.55 658.047C680.581 658.63 681.415 659.464 682.05 660.547C682.696 661.62 683.18 662.891 683.503 664.359C683.826 665.818 683.987 667.453 683.987 669.266C683.987 671.026 683.836 672.625 683.534 674.062C683.232 675.5 682.769 676.771 682.144 677.875C681.519 678.979 680.685 679.839 679.644 680.453ZM678.753 660.812C677.993 659.969 677.081 659.547 676.019 659.547C674.956 659.547 674.045 659.969 673.284 660.812C672.524 661.646 671.951 662.781 671.566 664.219C671.191 665.646 671.003 667.297 671.003 669.172C671.003 671.078 671.191 672.766 671.566 674.234C671.951 675.693 672.524 676.849 673.284 677.703C674.045 678.557 674.956 678.984 676.019 678.984C677.081 678.984 677.993 678.557 678.753 677.703C679.514 676.849 680.081 675.693 680.456 674.234C680.842 672.766 681.034 671.078 681.034 669.172C681.034 667.297 680.842 665.646 680.456 664.219C680.081 662.781 679.514 661.646 678.753 660.812Z" fill="#F5F5F5"/>
<rect x="716" y="631" width="70" height="75" rx="5" fill="#8C0327"/>
<path d="M751.218 681.188C750.572 681.188 750.062 680.984 749.687 680.578C749.322 680.161 749.14 679.677 749.14 679.125C749.14 678.562 749.322 678.078 749.687 677.672C750.051 677.266 750.562 677.062 751.218 677.062C751.874 677.062 752.385 677.266 752.749 677.672C753.114 678.078 753.296 678.562 753.296 679.125C753.296 679.688 753.114 680.172 752.749 680.578C752.385 680.984 751.874 681.188 751.218 681.188Z" fill="#F5F5F5"/>
<rect x="791" y="631" width="70" height="75" rx="5" fill="#03B805"/>
<path d="M818.473 675.109V672.891H833.551V675.109H818.473ZM818.457 668.516V666.266H833.551V668.516H818.457Z" fill="#F5F5F5"/>
<rect x="871.19" y="284" width="70" height="58" rx="5" fill="#038C7F"/>
<path d="M913.879 313.719C915.64 313.719 916.999 314.276 917.958 315.391C918.916 316.495 919.395 317.943 919.395 319.734C919.395 321.484 918.905 322.922 917.926 324.047C916.958 325.172 915.609 325.734 913.879 325.734C912.129 325.734 910.775 325.177 909.817 324.062C908.859 322.938 908.379 321.495 908.379 319.734C908.379 317.974 908.864 316.531 909.833 315.406C910.801 314.281 912.15 313.719 913.879 313.719ZM916.473 316.719C915.859 315.906 914.994 315.5 913.879 315.5C912.765 315.5 911.895 315.911 911.27 316.734C910.655 317.557 910.348 318.557 910.348 319.734C910.348 320.932 910.655 321.938 911.27 322.75C911.895 323.562 912.765 323.969 913.879 323.969C914.994 323.969 915.859 323.557 916.473 322.734C917.098 321.911 917.411 320.911 917.411 319.734C917.411 318.536 917.098 317.531 916.473 316.719ZM897.786 325.562L910.208 302.656H912.739L899.895 325.562H897.786ZM898.083 302.234C899.593 302.234 900.801 302.802 901.708 303.938C902.624 305.062 903.083 306.5 903.083 308.25C903.083 309.958 902.624 311.365 901.708 312.469C900.791 313.573 899.583 314.125 898.083 314.125C896.572 314.125 895.369 313.578 894.473 312.484C893.577 311.38 893.129 309.969 893.129 308.25C893.129 306.51 893.577 305.073 894.473 303.938C895.379 302.802 896.583 302.234 898.083 302.234ZM898.083 303.969C897.145 303.969 896.416 304.385 895.895 305.219C895.374 306.052 895.114 307.062 895.114 308.25C895.114 309.448 895.369 310.427 895.879 311.188C896.4 311.938 897.135 312.312 898.083 312.312C899.03 312.312 899.765 311.927 900.286 311.156C900.806 310.375 901.067 309.406 901.067 308.25C901.067 307.052 900.801 306.042 900.27 305.219C899.739 304.385 899.01 303.969 898.083 303.969Z" fill="#F5F5F5"/>
<rect x="871.19" y="358" width="70" height="75" rx="5" fill="#038C7F"/>
<path d="M907.343 396.781H913.437V398.906H907.327V405.609H905.187V398.906H898.984V396.781H905.202V390.156H907.343V396.781Z" fill="#F5F5F5"/>
<rect x="871.19" y="449" width="70" height="75" rx="5" fill="#038C7F"/>
<path d="M902.284 491.234V488.938H910.096V491.234H902.284Z" fill="#F5F5F5"/>
<rect x="871.19" y="540" width="70" height="75" rx="5" fill="#038C7F"/>
<path d="M907.597 566.219L907.034 572.641L912.644 570.281L913.425 572.953L907.691 574.25C907.805 574.406 908.363 575.146 909.363 576.469C910.373 577.792 911.128 578.786 911.628 579.453C911.357 579.62 910.956 579.865 910.425 580.188C909.894 580.51 909.493 580.755 909.222 580.922L906.097 575.266L903.144 580.922L900.706 579.453L904.581 574.25L898.909 572.953L899.691 570.281L905.269 572.641L904.691 566.219H907.597Z" fill="#F5F5F5"/>
<rect x="871.19" y="631" width="70" height="75" rx="5" fill="#038C7F"/>
<path d="M901.781 684.406H899.531L910.094 658.094H912.375L901.781 684.406Z" fill="#F5F5F5"/>
<rect x="618" y="123" width="348" height="610" rx="7" stroke="#8C0327" stroke-width="2"/>
</svg>
