<svg width="44" height="49" viewBox="0 0 44 49" fill="none" xmlns="http://www.w3.org/2000/svg">
<path d="M9.44531 25.3466V23.3466L17.4453 19.8239V22.125L11.968 24.3239L12.0419 24.2045V24.4886L11.968 24.3693L17.4453 26.5682V28.8693L9.44531 25.3466ZM24.9169 16.8182L21.1669 30.75H19.0817L22.8317 16.8182H24.9169ZM34.5547 25.3466L26.5547 28.8693V26.5682L32.032 24.3693L31.9581 24.4886V24.2045L32.032 24.3239L26.5547 22.125V19.8239L34.5547 23.3466V25.3466Z" fill="#98DAD9"/>
<mask id="path-2-inside-1_62_25" fill="white">
<path fill-rule="evenodd" clip-rule="evenodd" d="M33.001 5.63549C32.996 5.63829 32.9898 5.6347 32.9898 5.62899V5.62899C32.9898 5.6263 32.9884 5.62381 32.986 5.62249L23.9616 0.530617C22.7415 -0.157749 21.2503 -0.157748 20.0303 0.530618L11.0055 5.62268C11.0034 5.62388 11.002 5.62615 11.002 5.62861V5.62861C11.002 5.63107 11.0007 5.63333 10.9986 5.63454L2.04252 10.6878C0.785574 11.397 0.008134 12.7283 0.008134 14.1715V24.2325C0.008134 24.2354 0.00657978 24.2381 0.004067 24.2395V24.2395C0.00155422 24.2409 0 24.2436 0 24.2465V34.3121C0 35.7553 0.777441 37.0866 2.03438 37.7958L10.9899 42.8487C10.9924 42.8502 10.9954 42.8502 10.9979 42.8487L10.999 42.8481C11.004 42.8453 11.0102 42.8489 11.0102 42.8546V42.8546C11.0102 42.8573 11.0116 42.8598 11.014 42.8611L20.0384 47.953C21.2585 48.6414 22.7497 48.6414 23.9697 47.953L32.9945 42.8609C32.9966 42.8597 32.998 42.8575 32.998 42.855V42.855C32.998 42.8525 32.9993 42.8503 33.0014 42.8491L41.9575 37.7958C43.2144 37.0866 43.9919 35.7553 43.9919 34.3121V24.2511C43.9919 24.2482 43.9934 24.2455 43.9959 24.2441V24.2441C43.9984 24.2427 44 24.24 44 24.2371V14.1715C44 12.7283 43.2226 11.397 41.9656 10.6878L33.0101 5.63486C33.0076 5.63345 33.0046 5.63345 33.0021 5.63486L33.001 5.63549Z"/>
</mask>
<path d="M33.0101 5.63486L31.0445 9.11859L33.0101 5.63486ZM33.0021 5.63486L31.0363 2.1512L33.0021 5.63486ZM41.9656 10.6878L43.9312 7.20408L41.9656 10.6878ZM33.0014 42.8491L31.0358 39.3653L33.0014 42.8491ZM32.9945 42.8609L31.0289 39.3772L32.9945 42.8609ZM20.0384 47.953L18.0728 51.4367L20.0384 47.953ZM23.9697 47.953L25.9353 51.4367L23.9697 47.953ZM11.014 42.8611L12.9796 39.3774L11.014 42.8611ZM10.999 42.8481L12.9649 46.3317L10.999 42.8481ZM10.9899 42.8487L12.9555 39.365L10.9899 42.8487ZM10.9979 42.8487L12.9638 46.3323L10.9979 42.8487ZM2.03438 37.7958L4 34.3121L2.03438 37.7958ZM10.9986 5.63454L9.03295 2.15082L10.9986 5.63454ZM11.0055 5.62268L12.9711 9.1064L11.0055 5.62268ZM23.9616 0.530617L21.9959 4.01434L23.9616 0.530617ZM20.0303 0.530618L18.0647 -2.95311L20.0303 0.530618ZM33.001 5.63549L31.0352 2.15183L33.001 5.63549ZM32.986 5.62249L31.0204 9.10622L32.986 5.62249ZM21.9959 4.01434L31.0204 9.10622L34.9517 2.13876L25.9272 -2.95311L21.9959 4.01434ZM12.9711 9.1064L21.9959 4.01434L18.0647 -2.95311L9.03989 2.13895L12.9711 9.1064ZM4.00813 14.1715L12.9642 9.11827L9.03295 2.15082L0.0768978 7.20408L4.00813 14.1715ZM4.00813 24.2325V14.1715H-3.99187V24.2325H4.00813ZM4 34.3121V24.2465H-4V34.3121H4ZM12.9555 39.365L4 34.3121L0.068765 41.2795L9.02424 46.3325L12.9555 39.365ZM9.03315 39.3645L9.03205 39.3652L12.9638 46.3323L12.9649 46.3317L9.03315 39.3645ZM22.0041 44.4693L12.9796 39.3774L9.04834 46.3448L18.0728 51.4367L22.0041 44.4693ZM31.0289 39.3772L22.0041 44.4693L25.9353 51.4367L34.9601 46.3447L31.0289 39.3772ZM39.9919 34.3121L31.0358 39.3653L34.967 46.3328L43.9231 41.2795L39.9919 34.3121ZM39.9919 24.2511V34.3121H47.9919V24.2511H39.9919ZM40 14.1715V24.2371H48V14.1715H40ZM31.0445 9.11859L40 14.1715L43.9312 7.20408L34.9758 2.15114L31.0445 9.11859ZM34.9667 9.11915L34.9678 9.11852L31.0363 2.1512L31.0352 2.15183L34.9667 9.11915ZM34.9758 2.15114C33.7532 1.46134 32.2589 1.46136 31.0363 2.1512L34.9678 9.11852C33.7503 9.80554 32.2621 9.80556 31.0445 9.11859L34.9758 2.15114ZM48 14.1715C48 11.2851 46.4451 8.62248 43.9312 7.20408L40 14.1715L40 14.1715H48ZM45.9615 27.7278C47.221 27.0172 48 25.6833 48 24.2371H40C40 22.7967 40.7759 21.4681 42.0303 20.7604L45.9615 27.7278ZM47.9919 24.2511C47.9919 25.6914 47.216 27.02 45.9615 27.7278L42.0303 20.7604C40.7709 21.471 39.9919 22.805 39.9919 24.2511H47.9919ZM43.9231 41.2795C46.437 39.8611 47.9919 37.1985 47.9919 34.3121H39.9919L39.9919 34.3121L43.9231 41.2795ZM36.998 42.855C36.998 44.2957 36.2219 45.6248 34.967 46.3328L31.0358 39.3653C29.7767 40.0758 28.998 41.4094 28.998 42.855H36.998ZM34.9601 46.3447C36.2192 45.6343 36.998 44.3007 36.998 42.855H28.998C28.998 41.4142 29.7741 40.0852 31.0289 39.3772L34.9601 46.3447ZM18.0728 51.4367C20.5129 52.8135 23.4953 52.8134 25.9353 51.4367L22.0041 44.4693L22.0041 44.4693L18.0728 51.4367ZM7.01017 42.8546C7.01017 44.3008 7.78927 45.6344 9.04834 46.3448L12.9796 39.3774C14.234 40.0852 15.0102 41.4139 15.0102 42.8546H7.01017ZM12.9649 46.3317C10.3034 47.8337 7.01017 45.9107 7.01017 42.8546H15.0102C15.0102 39.7871 11.7046 37.857 9.03315 39.3645L12.9649 46.3317ZM9.02424 46.3325C10.2469 47.0223 11.7413 47.0222 12.9638 46.3323L9.03205 39.3652C10.2496 38.6781 11.7379 38.678 12.9555 39.365L9.02424 46.3325ZM-4 34.3121C-4 37.1985 -2.44512 39.8611 0.068765 41.2795L4 34.3121L4 34.3121H-4ZM-1.96144 20.7557C-3.22064 21.4661 -4 22.8 -4 24.2465H4C4 25.6872 3.22375 27.0157 1.96957 27.7233L-1.96144 20.7557ZM-3.99187 24.2325C-3.99187 22.7922 -3.21593 21.4635 -1.96144 20.7557L1.96957 27.7233C3.22909 27.0127 4.00813 25.6787 4.00813 24.2325H-3.99187ZM0.0768978 7.20408C-2.43699 8.62248 -3.99187 11.2851 -3.99187 14.1715H4.00813L4.00813 14.1715L0.0768978 7.20408ZM7.00204 5.62381C7.00376 4.18483 7.77959 2.858 9.03295 2.15082L12.9642 9.11827C14.2218 8.40867 15.0003 7.0773 15.002 5.6334L7.00204 5.62381ZM9.03989 2.13895C7.7823 2.84852 7.00377 4.17986 7.00204 5.62381L15.002 5.6334C15.0003 7.07244 14.2244 8.39925 12.9711 9.1064L9.03989 2.13895ZM25.9272 -2.95311C23.4871 -4.32984 20.5047 -4.32984 18.0647 -2.95311L21.9959 4.01434L21.9959 4.01434L25.9272 -2.95311ZM28.9898 5.62899C28.9898 8.69639 32.2953 10.6266 34.9667 9.11915L31.0352 2.15183C33.6967 0.650017 36.9898 2.57301 36.9898 5.62899H28.9898ZM36.9898 5.62899C36.9898 4.18332 36.2112 2.84941 34.9517 2.13876L31.0204 9.10622C29.7656 8.39822 28.9898 7.06927 28.9898 5.62899H36.9898Z" fill="#98DAD9" mask="url(#path-2-inside-1_62_25)"/>
</svg>
